<svg id="Layer_1" enable-background="new 0 0 128 128" viewBox="0 0 128 128" xmlns="http://www.w3.org/2000/svg"><g><path d="m102.78 78.84-4.48-56.05c-.08-1.04-.95-1.84-1.99-1.84h-16.59c-1.03-11.45-10.67-20.45-22.38-20.45s-21.35 9-22.37 20.45h-16.59c-1.04 0-1.91.8-1.99 1.84l-6.36 79.64c-.25 3.16.83 6.31 2.98 8.64s5.21 3.67 8.38 3.67h49.2c4.53 7.9 12.85 12.76 22.02 12.76 14 0 25.4-11.39 25.4-25.4 0-10.07-6.08-19.25-15.23-23.26zm-45.44-74.34c9.5 0 17.34 7.21 18.35 16.45h-36.7c1.01-9.24 8.85-16.45 18.35-16.45zm-41.39 103.86c-1.42-1.53-2.1-3.53-1.94-5.61l6.21-77.8h14.65v9.22c0 1.1.9 2 2 2s2-.9 2-2v-9.22h36.94v9.22c0 1.1.9 2 2 2s2-.9 2-2v-9.22h14.65l4.19 52.5c-1.96-.48-3.98-.75-6.04-.75-14.01 0-25.4 11.39-25.4 25.4 0 2.95.52 5.89 1.52 8.64h-47.34c-2.09 0-4.02-.85-5.44-2.38zm76.66 15.14c-8.08 0-15.38-4.47-19.06-11.67-1.55-3.02-2.34-6.29-2.34-9.73 0-11.8 9.6-21.4 21.4-21.4 2.62 0 5.16.46 7.56 1.38 8.28 3.13 13.84 11.17 13.84 20.02 0 11.8-9.6 21.4-21.4 21.4z"/><path d="m104.43 100.1h-9.82v-9.82c0-1.1-.9-2-2-2s-2 .9-2 2v9.82h-9.82c-1.1 0-2 .9-2 2s.9 2 2 2h9.82v9.82c0 1.1.9 2 2 2s2-.9 2-2v-9.82h9.82c1.1 0 2-.9 2-2s-.9-2-2-2z"/></g></svg>