<svg xmlns="http://www.w3.org/2000/svg" version="1.1" xmlns:xlink="http://www.w3.org/1999/xlink" width="512" height="512" x="0" y="0" viewBox="0 0 512 512" style="enable-background:new 0 0 512 512" xml:space="preserve"><g><path d="M362 0H150C67.16 0 0 67.16 0 150v212c0 82.84 67.16 150 150 150h212c82.84 0 150-67.16 150-150V150C512 67.16 444.84 0 362 0zm39 256c0 13.81-11.19 25-25 25h-95v95c0 13.81-11.19 25-25 25s-25-11.19-25-25v-95h-95c-13.81 0-25-11.19-25-25s11.19-25 25-25h95v-95c0-13.81 11.19-25 25-25s25 11.19 25 25v95h95c13.81 0 25 11.19 25 25z" data-name="39" fill="#ffffff" opacity="1" data-original="#000000"></path></g></svg>